<?xml version="1.0" encoding="UTF-8"?>
<svg width="750px" height="750px" xmlns="http://www.w3.org/2000/svg" >
<!--<rect x="0" y="0" width="750" height="750" rx="10" ry="10"  stroke="black" stroke-width="1.25" />--><!--fill="#2d97ca"-->
<polygon points="475, 290, 525,280, 575, 190, 590, 190, 535, 290, 475, 303" fill="yellow" stroke="black" stroke-width="1.25" />
<rect x="473" y="280" width="30" height="25" rx="10" ry="10" fill="white" stroke="black" stroke-width="1.25" />
<rect x="275" y="100" width="200" height="350" fill="yellow" stroke="brown" />
<rect x="283" y="450" width="15" height="190" fill="yellow" stroke="brown" />
<rect x="385" y="450" width="15" height="190" fill="yellow" stroke="brown" />
<rect x="265" y="445" width="50" height="25" fill="brown" stroke="black" />
<rect x="370" y="445" width="50" height="25" fill="brown" stroke="black" />
<rect x="275" y="350" width="200" height="100" fill="brown" stroke="black" />
<rect x="275" y="350" width="200" height="50" fill="white" stroke="brown" />
<ellipse cx="302" cy="640" rx="20" ry="10" stroke="brown" fill="black" stroke-width="1" />
<ellipse cx="405" cy="640" rx="20" ry="10" stroke="brown" fill="black" stroke-width="1" />
<circle cx="405" cy="170" r="40" fill="white" stroke="gray" stroke-width="2" />
<circle cx="345" cy="170" r="40" fill="white" stroke="gray" stroke-width="2" />
<circle cx="410" cy="175" r="12" fill="black" stroke="cyan" stroke-width="7" />
<circle cx="350" cy="175" r="12" fill="black" stroke="cyan" stroke-width="7" />
<ellipse cx="355" cy="263" rx="35" ry="10" stroke="brown" fill="yellow" stroke-width="1" transform="rotate(-9)" />
<polygon points="225, 340, 275, 350, 275, 450, 228, 440 " fill="brown" stroke="black" />
<polygon points="275, 100, 215, 110, 225, 340, 275, 350" fill="yellow" stroke="brown" />
<polygon points="225, 340, 275, 350, 275, 400, 225, 385" fill="white" stroke="brown" />
<rect x="220" y="310" width="15" height="150" fill="yellow" stroke="black" />
<rect x="213" y="308" width="30" height="39" rx="10" ry="10" fill="white" stroke="black" stroke-width="1.25" />
<rect x="315" y="250" rx="20" ry="20" fill="darkred" width="100" height="75" stroke="black" />
<rect x="313" y="299" rx="15" ry="10" fill="pink" width="70" height="25" />
<rect x="313" y="248" rx="20" ry="20" fill="transparent" width="104" height="79" stroke="yellow" stroke-width="5" />
<rect x="315" y="250" rx="20" ry="20" fill="transparent" width="100" height="75" stroke="black" stroke-width="1.5" />
<rect x="364" y="250" width="23" height="20" fill="white" stroke="black" stroke-width="1.25" />
<rect x="398" y="250" width="23" height="20" fill="white" stroke="black" stroke-width="1.25" />
</svg>